<?xml version="1.0" encoding="UTF-8" standalone="no"?>
<!DOCTYPE svg PUBLIC "-//W3C//DTD SVG 1.1//EN"
 "http://www.w3.org/Graphics/SVG/1.1/DTD/svg11.dtd">
<!-- Generated by graphviz version 2.40.1 (20161225.0304)
 -->
<!-- Title: dependencies Pages: 1 -->
<svg width="793pt" height="284pt"
 viewBox="0.00 0.00 793.00 284.00" xmlns="http://www.w3.org/2000/svg" xmlns:xlink="http://www.w3.org/1999/xlink">
<g id="graph0" class="graph" transform="scale(1 1) rotate(0) translate(4 280)">
<title>dependencies</title>
<polygon fill="#ffffff" stroke="transparent" points="-4,4 -4,-280 789,-280 789,4 -4,4"/>
<text text-anchor="start" x="371.5091" y="-42.4" font-family="sans-serif" font-weight="bold" font-size="14.00" fill="#000000">Legend</text>
<polygon fill="#ffffb3" stroke="transparent" points="158.5,-10 158.5,-30 178.5,-30 178.5,-10 158.5,-10"/>
<text text-anchor="start" x="182.129" y="-15.4" font-family="sans-serif" font-size="14.00" fill="#000000"> &#160;Declarations</text>
<polygon fill="#8dd3c7" stroke="transparent" points="271.5,-10 271.5,-30 291.5,-30 291.5,-10 271.5,-10"/>
<text text-anchor="start" x="295.2251" y="-15.4" font-family="sans-serif" font-size="14.00" fill="#000000"> &#160;Module</text>
<polygon fill="#80b1d3" stroke="transparent" points="357.5,-10 357.5,-30 377.5,-30 377.5,-10 357.5,-10"/>
<text text-anchor="start" x="381.2812" y="-15.4" font-family="sans-serif" font-size="14.00" fill="#000000"> &#160;Bootstrap</text>
<polygon fill="#fdb462" stroke="transparent" points="454.5,-10 454.5,-30 474.5,-30 474.5,-10 454.5,-10"/>
<text text-anchor="start" x="478.1732" y="-15.4" font-family="sans-serif" font-size="14.00" fill="#000000"> &#160;Providers</text>
<polygon fill="#fb8072" stroke="transparent" points="550.5,-10 550.5,-30 570.5,-30 570.5,-10 550.5,-10"/>
<text text-anchor="start" x="574.2258" y="-15.4" font-family="sans-serif" font-size="14.00" fill="#000000"> &#160;Exports</text>
<g id="clust1" class="cluster">
<title>cluster_AppModule</title>
<polygon fill="none" stroke="#000000" stroke-dasharray="1,5" points="8,-70 8,-268 777,-268 777,-70 8,-70"/>
</g>
<g id="clust2" class="cluster">
<title>cluster_AppModule_declarations</title>
<polygon fill="none" stroke="#000000" points="657,-78 657,-130 769,-130 769,-78 657,-78"/>
</g>
<g id="clust4" class="cluster">
<title>cluster_AppModule_imports</title>
<polygon fill="none" stroke="#000000" points="172,-78 172,-130 649,-130 649,-78 172,-78"/>
</g>
<g id="clust6" class="cluster">
<title>cluster_AppModule_bootstrap</title>
<polygon fill="none" stroke="#000000" points="340,-208 340,-260 454,-260 454,-208 340,-208"/>
</g>
<g id="clust7" class="cluster">
<title>cluster_AppModule_providers</title>
<polygon fill="none" stroke="#000000" points="16,-78 16,-130 164,-130 164,-78 16,-78"/>
</g>
<!-- AppContainer -->
<g id="node1" class="node">
<title>AppContainer</title>
<polygon fill="#ffffb3" stroke="#000000" points="760.8147,-122 665.1853,-122 665.1853,-86 760.8147,-86 760.8147,-122"/>
<text text-anchor="middle" x="713" y="-99.8" font-family="Times,serif" font-size="14.00" fill="#000000">AppContainer</text>
</g>
<!-- AppModule -->
<g id="node2" class="node">
<title>AppModule</title>
<polygon fill="#8dd3c7" stroke="#000000" points="438.6571,-187 435.6571,-191 414.6571,-191 411.6571,-187 355.3429,-187 355.3429,-151 438.6571,-151 438.6571,-187"/>
<text text-anchor="middle" x="397" y="-164.8" font-family="Times,serif" font-size="14.00" fill="#000000">AppModule</text>
</g>
<!-- AppContainer&#45;&gt;AppModule -->
<g id="edge1" class="edge">
<title>AppContainer&#45;&gt;AppModule</title>
<path fill="none" stroke="#000000" d="M713,-122.2843C713,-143.3211 713,-175 713,-175 713,-175 448.9624,-175 448.9624,-175"/>
<polygon fill="#000000" stroke="#000000" points="448.9624,-171.5001 438.9624,-175 448.9623,-178.5001 448.9624,-171.5001"/>
</g>
<!-- AppContainer  -->
<g id="node7" class="node">
<title>AppContainer </title>
<polygon fill="#80b1d3" stroke="#000000" points="446.3144,-252 347.6856,-252 347.6856,-216 446.3144,-216 446.3144,-252"/>
<text text-anchor="middle" x="397" y="-229.8" font-family="Times,serif" font-size="14.00" fill="#000000">AppContainer </text>
</g>
<!-- AppModule&#45;&gt;AppContainer  -->
<g id="edge6" class="edge">
<title>AppModule&#45;&gt;AppContainer </title>
<path fill="none" stroke="#000000" stroke-dasharray="1,5" d="M397,-187.1061C397,-187.1061 397,-205.991 397,-205.991"/>
<polygon fill="#000000" stroke="#000000" points="393.5001,-205.9909 397,-215.991 400.5001,-205.991 393.5001,-205.9909"/>
</g>
<!-- AppRoutingModule -->
<g id="node3" class="node">
<title>AppRoutingModule</title>
<polygon fill="#8dd3c7" stroke="#000000" points="641.2744,-122 638.2744,-126 617.2744,-126 614.2744,-122 512.7256,-122 512.7256,-86 641.2744,-86 641.2744,-122"/>
<text text-anchor="middle" x="577" y="-99.8" font-family="Times,serif" font-size="14.00" fill="#000000">AppRoutingModule</text>
</g>
<!-- AppRoutingModule&#45;&gt;AppModule -->
<g id="edge2" class="edge">
<title>AppRoutingModule&#45;&gt;AppModule</title>
<path fill="none" stroke="#000000" d="M577,-122.0225C577,-139.3734 577,-163 577,-163 577,-163 448.748,-163 448.748,-163"/>
<polygon fill="#000000" stroke="#000000" points="448.7481,-159.5001 438.748,-163 448.748,-166.5001 448.7481,-159.5001"/>
</g>
<!-- CoreModule -->
<g id="node4" class="node">
<title>CoreModule</title>
<polygon fill="#8dd3c7" stroke="#000000" points="494.2619,-122 491.2619,-126 470.2619,-126 467.2619,-122 407.7381,-122 407.7381,-86 494.2619,-86 494.2619,-122"/>
<text text-anchor="middle" x="451" y="-99.8" font-family="Times,serif" font-size="14.00" fill="#000000">CoreModule</text>
</g>
<!-- CoreModule&#45;&gt;AppModule -->
<g id="edge3" class="edge">
<title>CoreModule&#45;&gt;AppModule</title>
<path fill="none" stroke="#000000" d="M423.2237,-122.1061C423.2237,-122.1061 423.2237,-140.991 423.2237,-140.991"/>
<polygon fill="#000000" stroke="#000000" points="419.7238,-140.9909 423.2237,-150.991 426.7238,-140.991 419.7238,-140.9909"/>
</g>
<!-- HomeModule -->
<g id="node5" class="node">
<title>HomeModule</title>
<polygon fill="#8dd3c7" stroke="#000000" points="389.7619,-122 386.7619,-126 365.7619,-126 362.7619,-122 296.2381,-122 296.2381,-86 389.7619,-86 389.7619,-122"/>
<text text-anchor="middle" x="343" y="-99.8" font-family="Times,serif" font-size="14.00" fill="#000000">HomeModule</text>
</g>
<!-- HomeModule&#45;&gt;AppModule -->
<g id="edge4" class="edge">
<title>HomeModule&#45;&gt;AppModule</title>
<path fill="none" stroke="#000000" d="M372.5263,-122.1061C372.5263,-122.1061 372.5263,-140.991 372.5263,-140.991"/>
<polygon fill="#000000" stroke="#000000" points="369.0264,-140.9909 372.5263,-150.991 376.0264,-140.991 369.0264,-140.9909"/>
</g>
<!-- SharedModule -->
<g id="node6" class="node">
<title>SharedModule</title>
<polygon fill="#8dd3c7" stroke="#000000" points="278.4231,-122 275.4231,-126 254.4231,-126 251.4231,-122 179.5769,-122 179.5769,-86 278.4231,-86 278.4231,-122"/>
<text text-anchor="middle" x="229" y="-99.8" font-family="Times,serif" font-size="14.00" fill="#000000">SharedModule</text>
</g>
<!-- SharedModule&#45;&gt;AppModule -->
<g id="edge5" class="edge">
<title>SharedModule&#45;&gt;AppModule</title>
<path fill="none" stroke="#000000" d="M229,-122.0225C229,-139.3734 229,-163 229,-163 229,-163 345.0399,-163 345.0399,-163"/>
<polygon fill="#000000" stroke="#000000" points="345.0399,-166.5001 355.0399,-163 345.0398,-159.5001 345.0399,-166.5001"/>
</g>
<!-- RouterService -->
<g id="node8" class="node">
<title>RouterService</title>
<ellipse fill="#fdb462" stroke="#000000" cx="90" cy="-104" rx="66.0492" ry="18"/>
<text text-anchor="middle" x="90" y="-99.8" font-family="Times,serif" font-size="14.00" fill="#000000">RouterService</text>
</g>
<!-- RouterService&#45;&gt;AppModule -->
<g id="edge7" class="edge">
<title>RouterService&#45;&gt;AppModule</title>
<path fill="none" stroke="#000000" d="M90,-122.2843C90,-143.3211 90,-175 90,-175 90,-175 345.2771,-175 345.2771,-175"/>
<polygon fill="#000000" stroke="#000000" points="345.2771,-178.5001 355.2771,-175 345.2771,-171.5001 345.2771,-178.5001"/>
</g>
</g>
</svg>
