<?xml version="1.0" encoding="UTF-8" standalone="no"?>
<!DOCTYPE svg PUBLIC "-//W3C//DTD SVG 1.1//EN"
 "http://www.w3.org/Graphics/SVG/1.1/DTD/svg11.dtd">
<!-- Generated by graphviz version 2.40.1 (20161225.0304)
 -->
<!-- Title: dependencies Pages: 1 -->
<svg width="504pt" height="211pt"
 viewBox="0.00 0.00 504.00 211.00" xmlns="http://www.w3.org/2000/svg" xmlns:xlink="http://www.w3.org/1999/xlink">
<g id="graph0" class="graph" transform="scale(1 1) rotate(0) translate(4 207)">
<title>dependencies</title>
<polygon fill="#ffffff" stroke="transparent" points="-4,4 -4,-207 500,-207 500,4 -4,4"/>
<text text-anchor="start" x="227.0091" y="-42.4" font-family="sans-serif" font-weight="bold" font-size="14.00" fill="#000000">Legend</text>
<polygon fill="#ffffb3" stroke="transparent" points="14,-10 14,-30 34,-30 34,-10 14,-10"/>
<text text-anchor="start" x="37.629" y="-15.4" font-family="sans-serif" font-size="14.00" fill="#000000"> &#160;Declarations</text>
<polygon fill="#8dd3c7" stroke="transparent" points="127,-10 127,-30 147,-30 147,-10 127,-10"/>
<text text-anchor="start" x="150.7251" y="-15.4" font-family="sans-serif" font-size="14.00" fill="#000000"> &#160;Module</text>
<polygon fill="#80b1d3" stroke="transparent" points="213,-10 213,-30 233,-30 233,-10 213,-10"/>
<text text-anchor="start" x="236.7812" y="-15.4" font-family="sans-serif" font-size="14.00" fill="#000000"> &#160;Bootstrap</text>
<polygon fill="#fdb462" stroke="transparent" points="310,-10 310,-30 330,-30 330,-10 310,-10"/>
<text text-anchor="start" x="333.6732" y="-15.4" font-family="sans-serif" font-size="14.00" fill="#000000"> &#160;Providers</text>
<polygon fill="#fb8072" stroke="transparent" points="406,-10 406,-30 426,-30 426,-10 406,-10"/>
<text text-anchor="start" x="429.7258" y="-15.4" font-family="sans-serif" font-size="14.00" fill="#000000"> &#160;Exports</text>
<g id="clust1" class="cluster">
<title>cluster_HomeModule</title>
<polygon fill="none" stroke="#000000" stroke-dasharray="1,5" points="39.5,-70 39.5,-195 456.5,-195 456.5,-70 39.5,-70"/>
</g>
<g id="clust2" class="cluster">
<title>cluster_HomeModule_declarations</title>
<polygon fill="none" stroke="#000000" points="326.5,-78 326.5,-130 448.5,-130 448.5,-78 326.5,-78"/>
</g>
<g id="clust4" class="cluster">
<title>cluster_HomeModule_imports</title>
<polygon fill="none" stroke="#000000" points="47.5,-78 47.5,-130 318.5,-130 318.5,-78 47.5,-78"/>
</g>
<!-- HomeContainer -->
<g id="node1" class="node">
<title>HomeContainer</title>
<polygon fill="#ffffb3" stroke="#000000" points="440.4202,-122 334.5798,-122 334.5798,-86 440.4202,-86 440.4202,-122"/>
<text text-anchor="middle" x="387.5" y="-99.8" font-family="Times,serif" font-size="14.00" fill="#000000">HomeContainer</text>
</g>
<!-- HomeModule -->
<g id="node2" class="node">
<title>HomeModule</title>
<polygon fill="#8dd3c7" stroke="#000000" points="288.2619,-187 285.2619,-191 264.2619,-191 261.2619,-187 194.7381,-187 194.7381,-151 288.2619,-151 288.2619,-187"/>
<text text-anchor="middle" x="241.5" y="-164.8" font-family="Times,serif" font-size="14.00" fill="#000000">HomeModule</text>
</g>
<!-- HomeContainer&#45;&gt;HomeModule -->
<g id="edge1" class="edge">
<title>HomeContainer&#45;&gt;HomeModule</title>
<path fill="none" stroke="#000000" d="M387.5,-122.1061C387.5,-141.3391 387.5,-169 387.5,-169 387.5,-169 298.499,-169 298.499,-169"/>
<polygon fill="#000000" stroke="#000000" points="298.499,-165.5001 288.499,-169 298.4989,-172.5001 298.499,-165.5001"/>
</g>
<!-- HomeRoutingModule -->
<g id="node3" class="node">
<title>HomeRoutingModule</title>
<polygon fill="#8dd3c7" stroke="#000000" points="310.8795,-122 307.8795,-126 286.8795,-126 283.8795,-122 172.1205,-122 172.1205,-86 310.8795,-86 310.8795,-122"/>
<text text-anchor="middle" x="241.5" y="-99.8" font-family="Times,serif" font-size="14.00" fill="#000000">HomeRoutingModule</text>
</g>
<!-- HomeRoutingModule&#45;&gt;HomeModule -->
<g id="edge2" class="edge">
<title>HomeRoutingModule&#45;&gt;HomeModule</title>
<path fill="none" stroke="#000000" d="M241.5,-122.1061C241.5,-122.1061 241.5,-140.991 241.5,-140.991"/>
<polygon fill="#000000" stroke="#000000" points="238.0001,-140.9909 241.5,-150.991 245.0001,-140.991 238.0001,-140.9909"/>
</g>
<!-- SharedModule -->
<g id="node4" class="node">
<title>SharedModule</title>
<polygon fill="#8dd3c7" stroke="#000000" points="153.9231,-122 150.9231,-126 129.9231,-126 126.9231,-122 55.0769,-122 55.0769,-86 153.9231,-86 153.9231,-122"/>
<text text-anchor="middle" x="104.5" y="-99.8" font-family="Times,serif" font-size="14.00" fill="#000000">SharedModule</text>
</g>
<!-- SharedModule&#45;&gt;HomeModule -->
<g id="edge3" class="edge">
<title>SharedModule&#45;&gt;HomeModule</title>
<path fill="none" stroke="#000000" d="M104.5,-122.1061C104.5,-141.3391 104.5,-169 104.5,-169 104.5,-169 184.7355,-169 184.7355,-169"/>
<polygon fill="#000000" stroke="#000000" points="184.7356,-172.5001 194.7355,-169 184.7355,-165.5001 184.7356,-172.5001"/>
</g>
</g>
</svg>
