<?xml version="1.0" encoding="UTF-8" standalone="no"?>
<!DOCTYPE svg PUBLIC "-//W3C//DTD SVG 1.1//EN"
 "http://www.w3.org/Graphics/SVG/1.1/DTD/svg11.dtd">
<!-- Generated by graphviz version 2.40.1 (20161225.0304)
 -->
<!-- Title: dependencies Pages: 1 -->
<svg width="1226pt" height="436pt"
 viewBox="0.00 0.00 1226.00 436.00" xmlns="http://www.w3.org/2000/svg" xmlns:xlink="http://www.w3.org/1999/xlink">
<g id="graph0" class="graph" transform="scale(1 1) rotate(0) translate(4 432)">
<title>dependencies</title>
<polygon fill="#ffffff" stroke="transparent" points="-4,4 -4,-432 1222,-432 1222,4 -4,4"/>
<text text-anchor="start" x="588.0091" y="-42.4" font-family="sans-serif" font-weight="bold" font-size="14.00" fill="#000000">Legend</text>
<polygon fill="#ffffb3" stroke="transparent" points="375,-10 375,-30 395,-30 395,-10 375,-10"/>
<text text-anchor="start" x="398.629" y="-15.4" font-family="sans-serif" font-size="14.00" fill="#000000"> &#160;Declarations</text>
<polygon fill="#8dd3c7" stroke="transparent" points="488,-10 488,-30 508,-30 508,-10 488,-10"/>
<text text-anchor="start" x="511.7251" y="-15.4" font-family="sans-serif" font-size="14.00" fill="#000000"> &#160;Module</text>
<polygon fill="#80b1d3" stroke="transparent" points="574,-10 574,-30 594,-30 594,-10 574,-10"/>
<text text-anchor="start" x="597.7812" y="-15.4" font-family="sans-serif" font-size="14.00" fill="#000000"> &#160;Bootstrap</text>
<polygon fill="#fdb462" stroke="transparent" points="671,-10 671,-30 691,-30 691,-10 671,-10"/>
<text text-anchor="start" x="694.6732" y="-15.4" font-family="sans-serif" font-size="14.00" fill="#000000"> &#160;Providers</text>
<polygon fill="#fb8072" stroke="transparent" points="767,-10 767,-30 787,-30 787,-10 767,-10"/>
<text text-anchor="start" x="790.7258" y="-15.4" font-family="sans-serif" font-size="14.00" fill="#000000"> &#160;Exports</text>
<g id="clust1" class="cluster">
<title>cluster_AppModule</title>
<polygon fill="none" stroke="#000000" stroke-dasharray="1,5" points="316,-146 316,-420 974,-420 974,-146 316,-146"/>
</g>
<g id="clust2" class="cluster">
<title>cluster_AppModule_declarations</title>
<polygon fill="none" stroke="#000000" points="854,-230 854,-282 966,-282 966,-230 854,-230"/>
</g>
<g id="clust4" class="cluster">
<title>cluster_AppModule_imports</title>
<polygon fill="none" stroke="#000000" points="480,-154 480,-282 846,-282 846,-154 480,-154"/>
</g>
<g id="clust6" class="cluster">
<title>cluster_AppModule_bootstrap</title>
<polygon fill="none" stroke="#000000" points="599,-360 599,-412 713,-412 713,-360 599,-360"/>
</g>
<g id="clust7" class="cluster">
<title>cluster_AppModule_providers</title>
<polygon fill="none" stroke="#000000" points="324,-230 324,-282 472,-282 472,-230 324,-230"/>
</g>
<g id="clust14" class="cluster">
<title>cluster_CoreModule</title>
<polygon fill="none" stroke="#000000" stroke-dasharray="1,5" points="544,-70 544,-138 802,-138 802,-70 544,-70"/>
</g>
<g id="clust16" class="cluster">
<title>cluster_CoreModule_imports</title>
<polygon fill="none" stroke="#000000" points="686,-78 686,-130 794,-130 794,-78 686,-78"/>
</g>
<g id="clust19" class="cluster">
<title>cluster_CoreModule_providers</title>
<polygon fill="none" stroke="#000000" points="552,-78 552,-130 678,-130 678,-78 552,-78"/>
</g>
<g id="clust20" class="cluster">
<title>cluster_HomeModule</title>
<polygon fill="none" stroke="#000000" stroke-dasharray="1,5" points="8,-146 8,-214 308,-214 308,-146 8,-146"/>
</g>
<g id="clust21" class="cluster">
<title>cluster_HomeModule_declarations</title>
<polygon fill="none" stroke="#000000" points="178,-154 178,-206 300,-206 300,-154 178,-154"/>
</g>
<g id="clust23" class="cluster">
<title>cluster_HomeModule_imports</title>
<polygon fill="none" stroke="#000000" points="16,-154 16,-206 170,-206 170,-154 16,-154"/>
</g>
<g id="clust33" class="cluster">
<title>cluster_SharedModule</title>
<polygon fill="none" stroke="#000000" stroke-dasharray="1,5" points="982,-222 982,-290 1210,-290 1210,-222 982,-222"/>
</g>
<g id="clust34" class="cluster">
<title>cluster_SharedModule_declarations</title>
<polygon fill="none" stroke="#000000" points="1102,-230 1102,-282 1202,-282 1202,-230 1102,-230"/>
</g>
<g id="clust37" class="cluster">
<title>cluster_SharedModule_exports</title>
<polygon fill="none" stroke="#000000" points="990,-230 990,-282 1094,-282 1094,-230 990,-230"/>
</g>
<!-- AppContainer -->
<g id="node1" class="node">
<title>AppContainer</title>
<polygon fill="#ffffb3" stroke="#000000" points="957.8147,-274 862.1853,-274 862.1853,-238 957.8147,-238 957.8147,-274"/>
<text text-anchor="middle" x="910" y="-251.8" font-family="Times,serif" font-size="14.00" fill="#000000">AppContainer</text>
</g>
<!-- AppModule -->
<g id="node2" class="node">
<title>AppModule</title>
<polygon fill="#8dd3c7" stroke="#000000" points="697.6571,-339 694.6571,-343 673.6571,-343 670.6571,-339 614.3429,-339 614.3429,-303 697.6571,-303 697.6571,-339"/>
<text text-anchor="middle" x="656" y="-316.8" font-family="Times,serif" font-size="14.00" fill="#000000">AppModule</text>
</g>
<!-- AppContainer&#45;&gt;AppModule -->
<g id="edge1" class="edge">
<title>AppContainer&#45;&gt;AppModule</title>
<path fill="none" stroke="#000000" d="M862.2373,-256C793.9994,-256 676.7585,-256 676.7585,-256 676.7585,-256 676.7585,-292.8939 676.7585,-292.8939"/>
<polygon fill="#000000" stroke="#000000" points="673.2586,-292.8938 676.7585,-302.8939 680.2586,-292.8939 673.2586,-292.8938"/>
</g>
<!-- AppContainer  -->
<g id="node7" class="node">
<title>AppContainer </title>
<polygon fill="#80b1d3" stroke="#000000" points="705.3144,-404 606.6856,-404 606.6856,-368 705.3144,-368 705.3144,-404"/>
<text text-anchor="middle" x="656" y="-381.8" font-family="Times,serif" font-size="14.00" fill="#000000">AppContainer </text>
</g>
<!-- AppModule&#45;&gt;AppContainer  -->
<g id="edge6" class="edge">
<title>AppModule&#45;&gt;AppContainer </title>
<path fill="none" stroke="#000000" stroke-dasharray="1,5" d="M656,-339.1061C656,-339.1061 656,-357.991 656,-357.991"/>
<polygon fill="#000000" stroke="#000000" points="652.5001,-357.9909 656,-367.991 659.5001,-357.991 652.5001,-357.9909"/>
</g>
<!-- AppRoutingModule -->
<g id="node3" class="node">
<title>AppRoutingModule</title>
<polygon fill="#8dd3c7" stroke="#000000" points="616.2744,-198 613.2744,-202 592.2744,-202 589.2744,-198 487.7256,-198 487.7256,-162 616.2744,-162 616.2744,-198"/>
<text text-anchor="middle" x="552" y="-175.8" font-family="Times,serif" font-size="14.00" fill="#000000">AppRoutingModule</text>
</g>
<!-- AppRoutingModule&#45;&gt;AppModule -->
<g id="edge2" class="edge">
<title>AppRoutingModule&#45;&gt;AppModule</title>
<path fill="none" stroke="#000000" d="M616.5822,-180C623.758,-180 628.5418,-180 628.5418,-180 628.5418,-180 628.5418,-292.8554 628.5418,-292.8554"/>
<polygon fill="#000000" stroke="#000000" points="625.0419,-292.8553 628.5418,-302.8554 632.0419,-292.8554 625.0419,-292.8553"/>
</g>
<!-- CoreModule -->
<g id="node4" class="node">
<title>CoreModule</title>
<polygon fill="#8dd3c7" stroke="#000000" points="721.2619,-198 718.2619,-202 697.2619,-202 694.2619,-198 634.7381,-198 634.7381,-162 721.2619,-162 721.2619,-198"/>
<text text-anchor="middle" x="678" y="-175.8" font-family="Times,serif" font-size="14.00" fill="#000000">CoreModule</text>
</g>
<!-- CoreModule&#45;&gt;AppModule -->
<g id="edge3" class="edge">
<title>CoreModule&#45;&gt;AppModule</title>
<path fill="none" stroke="#000000" d="M655.6889,-198.1446C655.6889,-198.1446 655.6889,-292.925 655.6889,-292.925"/>
<polygon fill="#000000" stroke="#000000" points="652.189,-292.925 655.6889,-302.925 659.189,-292.925 652.189,-292.925"/>
</g>
<!-- HomeModule -->
<g id="node5" class="node">
<title>HomeModule</title>
<polygon fill="#8dd3c7" stroke="#000000" points="609.7619,-274 606.7619,-278 585.7619,-278 582.7619,-274 516.2381,-274 516.2381,-238 609.7619,-238 609.7619,-274"/>
<text text-anchor="middle" x="563" y="-251.8" font-family="Times,serif" font-size="14.00" fill="#000000">HomeModule</text>
</g>
<!-- HomeModule&#45;&gt;AppModule -->
<g id="edge4" class="edge">
<title>HomeModule&#45;&gt;AppModule</title>
<path fill="none" stroke="#000000" d="M609.8536,-265C617.2236,-265 622.4645,-265 622.4645,-265 622.4645,-265 622.4645,-292.973 622.4645,-292.973"/>
<polygon fill="#000000" stroke="#000000" points="618.9646,-292.973 622.4645,-302.973 625.9646,-292.973 618.9646,-292.973"/>
</g>
<!-- SharedModule -->
<g id="node6" class="node">
<title>SharedModule</title>
<polygon fill="#8dd3c7" stroke="#000000" points="838.4231,-198 835.4231,-202 814.4231,-202 811.4231,-198 739.5769,-198 739.5769,-162 838.4231,-162 838.4231,-198"/>
<text text-anchor="middle" x="789" y="-175.8" font-family="Times,serif" font-size="14.00" fill="#000000">SharedModule</text>
</g>
<!-- SharedModule&#45;&gt;AppModule -->
<g id="edge5" class="edge">
<title>SharedModule&#45;&gt;AppModule</title>
<path fill="none" stroke="#000000" d="M805.4037,-198.1446C805.4037,-236.2265 805.4037,-321 805.4037,-321 805.4037,-321 708.0149,-321 708.0149,-321"/>
<polygon fill="#000000" stroke="#000000" points="708.0149,-317.5001 698.0149,-321 708.0148,-324.5001 708.0149,-317.5001"/>
</g>
<!-- SharedModule&#45;&gt;HomeModule -->
<g id="edge12" class="edge">
<title>SharedModule&#45;&gt;HomeModule</title>
<path fill="none" stroke="#000000" d="M772.5963,-198.308C772.5963,-218.1455 772.5963,-247 772.5963,-247 772.5963,-247 619.7766,-247 619.7766,-247"/>
<polygon fill="#000000" stroke="#000000" points="619.7767,-243.5001 609.7766,-247 619.7766,-250.5001 619.7767,-243.5001"/>
</g>
<!-- ShortenPipe  -->
<g id="node14" class="node">
<title>ShortenPipe </title>
<polygon fill="#fb8072" stroke="#000000" points="1085.9362,-274 998.0638,-274 998.0638,-238 1085.9362,-238 1085.9362,-274"/>
<text text-anchor="middle" x="1042" y="-251.8" font-family="Times,serif" font-size="14.00" fill="#000000">ShortenPipe </text>
</g>
<!-- SharedModule&#45;&gt;ShortenPipe  -->
<g id="edge14" class="edge">
<title>SharedModule&#45;&gt;ShortenPipe </title>
<path fill="none" stroke="#000000" stroke-dasharray="5,2" d="M838.3815,-186C912.0092,-186 1042,-186 1042,-186 1042,-186 1042,-227.9733 1042,-227.9733"/>
<polygon fill="#000000" stroke="#000000" points="1038.5001,-227.9732 1042,-237.9733 1045.5001,-227.9733 1038.5001,-227.9732"/>
</g>
<!-- RouterService -->
<g id="node8" class="node">
<title>RouterService</title>
<ellipse fill="#fdb462" stroke="#000000" cx="398" cy="-256" rx="66.0492" ry="18"/>
<text text-anchor="middle" x="398" y="-251.8" font-family="Times,serif" font-size="14.00" fill="#000000">RouterService</text>
</g>
<!-- RouterService&#45;&gt;AppModule -->
<g id="edge7" class="edge">
<title>RouterService&#45;&gt;AppModule</title>
<path fill="none" stroke="#000000" d="M398,-274.1061C398,-293.3391 398,-321 398,-321 398,-321 604.2611,-321 604.2611,-321"/>
<polygon fill="#000000" stroke="#000000" points="604.2611,-324.5001 614.2611,-321 604.2611,-317.5001 604.2611,-324.5001"/>
</g>
<!-- !environment -->
<g id="node9" class="node">
<title>!environment</title>
<polygon fill="#8dd3c7" stroke="#000000" points="785.9232,-122 782.9232,-126 761.9232,-126 758.9232,-122 694.0768,-122 694.0768,-86 785.9232,-86 785.9232,-122"/>
<text text-anchor="middle" x="740" y="-99.8" font-family="Times,serif" font-size="14.00" fill="#000000">!environment</text>
</g>
<!-- !environment&#45;&gt;CoreModule -->
<g id="edge8" class="edge">
<title>!environment&#45;&gt;CoreModule</title>
<path fill="none" stroke="#000000" d="M707.8349,-122.0109C707.8349,-122.0109 707.8349,-151.855 707.8349,-151.855"/>
<polygon fill="#000000" stroke="#000000" points="704.3349,-151.8549 707.8349,-161.855 711.3349,-151.855 704.3349,-151.8549"/>
</g>
<!-- UtilService -->
<g id="node10" class="node">
<title>UtilService</title>
<ellipse fill="#fdb462" stroke="#000000" cx="615" cy="-104" rx="55.0285" ry="18"/>
<text text-anchor="middle" x="615" y="-99.8" font-family="Times,serif" font-size="14.00" fill="#000000">UtilService</text>
</g>
<!-- UtilService&#45;&gt;CoreModule -->
<g id="edge9" class="edge">
<title>UtilService&#45;&gt;CoreModule</title>
<path fill="none" stroke="#000000" d="M652.3167,-117.2382C652.3167,-117.2382 652.3167,-151.7901 652.3167,-151.7901"/>
<polygon fill="#000000" stroke="#000000" points="648.8168,-151.79 652.3167,-161.7901 655.8168,-151.7901 648.8168,-151.79"/>
</g>
<!-- HomeContainer -->
<g id="node11" class="node">
<title>HomeContainer</title>
<polygon fill="#ffffb3" stroke="#000000" points="291.9202,-198 186.0798,-198 186.0798,-162 291.9202,-162 291.9202,-198"/>
<text text-anchor="middle" x="239" y="-175.8" font-family="Times,serif" font-size="14.00" fill="#000000">HomeContainer</text>
</g>
<!-- HomeContainer&#45;&gt;HomeModule -->
<g id="edge10" class="edge">
<title>HomeContainer&#45;&gt;HomeModule</title>
<path fill="none" stroke="#000000" d="M291.8798,-180C361.7125,-180 475.9436,-180 475.9436,-180 475.9436,-180 475.9436,-256 475.9436,-256 475.9436,-256 506.159,-256 506.159,-256"/>
<polygon fill="#000000" stroke="#000000" points="506.159,-259.5001 516.159,-256 506.159,-252.5001 506.159,-259.5001"/>
</g>
<!-- HomeRoutingModule -->
<g id="node12" class="node">
<title>HomeRoutingModule</title>
<polygon fill="#8dd3c7" stroke="#000000" points="162.3795,-198 159.3795,-202 138.3795,-202 135.3795,-198 23.6205,-198 23.6205,-162 162.3795,-162 162.3795,-198"/>
<text text-anchor="middle" x="93" y="-175.8" font-family="Times,serif" font-size="14.00" fill="#000000">HomeRoutingModule</text>
</g>
<!-- HomeRoutingModule&#45;&gt;HomeModule -->
<g id="edge11" class="edge">
<title>HomeRoutingModule&#45;&gt;HomeModule</title>
<path fill="none" stroke="#000000" d="M93,-198.1097C93,-207.897 93,-218 93,-218 93,-218 563,-218 563,-218 563,-218 563,-227.8903 563,-227.8903"/>
<polygon fill="#000000" stroke="#000000" points="559.5001,-227.8903 563,-237.8903 566.5001,-227.8904 559.5001,-227.8903"/>
</g>
<!-- ShortenPipe -->
<g id="node13" class="node">
<title>ShortenPipe</title>
<polygon fill="#ffffb3" stroke="#000000" points="1194.4373,-274 1109.5627,-274 1109.5627,-238 1194.4373,-238 1194.4373,-274"/>
<text text-anchor="middle" x="1152" y="-251.8" font-family="Times,serif" font-size="14.00" fill="#000000">ShortenPipe</text>
</g>
<!-- ShortenPipe&#45;&gt;SharedModule -->
<g id="edge13" class="edge">
<title>ShortenPipe&#45;&gt;SharedModule</title>
<path fill="none" stroke="#000000" d="M1152,-237.8015C1152,-213.6437 1152,-174 1152,-174 1152,-174 848.3336,-174 848.3336,-174"/>
<polygon fill="#000000" stroke="#000000" points="848.3336,-170.5001 838.3336,-174 848.3335,-177.5001 848.3336,-170.5001"/>
</g>
</g>
</svg>
