<?xml version="1.0" encoding="UTF-8" standalone="no"?>
<!DOCTYPE svg PUBLIC "-//W3C//DTD SVG 1.1//EN"
 "http://www.w3.org/Graphics/SVG/1.1/DTD/svg11.dtd">
<!-- Generated by graphviz version 2.40.1 (20161225.0304)
 -->
<!-- Title: dependencies Pages: 1 -->
<svg width="504pt" height="211pt"
 viewBox="0.00 0.00 504.00 211.00" xmlns="http://www.w3.org/2000/svg" xmlns:xlink="http://www.w3.org/1999/xlink">
<g id="graph0" class="graph" transform="scale(1 1) rotate(0) translate(4 207)">
<title>dependencies</title>
<polygon fill="#ffffff" stroke="transparent" points="-4,4 -4,-207 500,-207 500,4 -4,4"/>
<text text-anchor="start" x="227.0091" y="-42.4" font-family="sans-serif" font-weight="bold" font-size="14.00" fill="#000000">Legend</text>
<polygon fill="#ffffb3" stroke="transparent" points="14,-10 14,-30 34,-30 34,-10 14,-10"/>
<text text-anchor="start" x="37.629" y="-15.4" font-family="sans-serif" font-size="14.00" fill="#000000"> &#160;Declarations</text>
<polygon fill="#8dd3c7" stroke="transparent" points="127,-10 127,-30 147,-30 147,-10 127,-10"/>
<text text-anchor="start" x="150.7251" y="-15.4" font-family="sans-serif" font-size="14.00" fill="#000000"> &#160;Module</text>
<polygon fill="#80b1d3" stroke="transparent" points="213,-10 213,-30 233,-30 233,-10 213,-10"/>
<text text-anchor="start" x="236.7812" y="-15.4" font-family="sans-serif" font-size="14.00" fill="#000000"> &#160;Bootstrap</text>
<polygon fill="#fdb462" stroke="transparent" points="310,-10 310,-30 330,-30 330,-10 310,-10"/>
<text text-anchor="start" x="333.6732" y="-15.4" font-family="sans-serif" font-size="14.00" fill="#000000"> &#160;Providers</text>
<polygon fill="#fb8072" stroke="transparent" points="406,-10 406,-30 426,-30 426,-10 406,-10"/>
<text text-anchor="start" x="429.7258" y="-15.4" font-family="sans-serif" font-size="14.00" fill="#000000"> &#160;Exports</text>
<g id="clust1" class="cluster">
<title>cluster_CoreModule</title>
<polygon fill="none" stroke="#000000" stroke-dasharray="1,5" points="119,-70 119,-195 377,-195 377,-70 119,-70"/>
</g>
<g id="clust3" class="cluster">
<title>cluster_CoreModule_imports</title>
<polygon fill="none" stroke="#000000" points="261,-78 261,-130 369,-130 369,-78 261,-78"/>
</g>
<g id="clust6" class="cluster">
<title>cluster_CoreModule_providers</title>
<polygon fill="none" stroke="#000000" points="127,-78 127,-130 253,-130 253,-78 127,-78"/>
</g>
<!-- !environment -->
<g id="node1" class="node">
<title>!environment</title>
<polygon fill="#8dd3c7" stroke="#000000" points="360.9232,-122 357.9232,-126 336.9232,-126 333.9232,-122 269.0768,-122 269.0768,-86 360.9232,-86 360.9232,-122"/>
<text text-anchor="middle" x="315" y="-99.8" font-family="Times,serif" font-size="14.00" fill="#000000">!environment</text>
</g>
<!-- CoreModule -->
<g id="node2" class="node">
<title>CoreModule</title>
<polygon fill="#8dd3c7" stroke="#000000" points="295.2619,-187 292.2619,-191 271.2619,-191 268.2619,-187 208.7381,-187 208.7381,-151 295.2619,-151 295.2619,-187"/>
<text text-anchor="middle" x="252" y="-164.8" font-family="Times,serif" font-size="14.00" fill="#000000">CoreModule</text>
</g>
<!-- !environment&#45;&gt;CoreModule -->
<g id="edge1" class="edge">
<title>!environment&#45;&gt;CoreModule</title>
<path fill="none" stroke="#000000" d="M282.3348,-122.1061C282.3348,-122.1061 282.3348,-140.991 282.3348,-140.991"/>
<polygon fill="#000000" stroke="#000000" points="278.8349,-140.9909 282.3348,-150.991 285.8349,-140.991 278.8349,-140.9909"/>
</g>
<!-- UtilService -->
<g id="node3" class="node">
<title>UtilService</title>
<ellipse fill="#fdb462" stroke="#000000" cx="190" cy="-104" rx="55.0285" ry="18"/>
<text text-anchor="middle" x="190" y="-99.8" font-family="Times,serif" font-size="14.00" fill="#000000">UtilService</text>
</g>
<!-- UtilService&#45;&gt;CoreModule -->
<g id="edge2" class="edge">
<title>UtilService&#45;&gt;CoreModule</title>
<path fill="none" stroke="#000000" d="M226.8167,-117.468C226.8167,-117.468 226.8167,-140.8642 226.8167,-140.8642"/>
<polygon fill="#000000" stroke="#000000" points="223.3168,-140.8641 226.8167,-150.8642 230.3168,-140.8642 223.3168,-140.8641"/>
</g>
</g>
</svg>
